<?xml version="1.0" encoding="UTF-8"?>
<svg xmlns="http://www.w3.org/2000/svg" xmlns:xlink="http://www.w3.org/1999/xlink" viewBox="0 0 32 32" width="32px" height="32px">
<g id="surface57276980">
<path style=" stroke:none;fill-rule:nonzero;fill:rgb(80.000001%,80.000001%,80.000001%);fill-opacity:1;" d="M 16 16.160156 C 15.910156 16.160156 15.839844 16.089844 15.839844 16 C 15.839844 15.910156 15.910156 15.839844 16 15.839844 C 16.089844 15.839844 16.160156 15.910156 16.160156 16 C 16.160156 16.089844 16.089844 16.160156 16 16.160156 Z M 16 16.160156 "/>
<path style=" stroke:none;fill-rule:nonzero;fill:rgb(25.490198%,67.450982%,67.450982%);fill-opacity:1;" d="M 16 4.820312 C 9.808594 4.820312 4.820312 9.808594 4.820312 16 C 4.820312 22.191406 9.808594 27.179688 16 27.179688 C 22.191406 27.179688 27.179688 22.191406 27.179688 16 C 27.179688 14.796875 27.019531 13.597656 26.589844 12.480469 L 25.191406 13.851562 C 25.363281 14.539062 25.460938 15.226562 25.460938 16 C 25.460938 21.246094 21.246094 25.460938 16 25.460938 C 10.753906 25.460938 6.539062 21.246094 6.539062 16 C 6.539062 10.753906 10.753906 6.539062 16 6.539062 C 18.578125 6.539062 20.898438 7.566406 22.53125 9.199219 L 23.738281 7.992188 C 21.761719 6.011719 19.011719 4.820312 16 4.820312 Z M 25.703125 8.5 L 16 18.203125 L 12.316406 14.523438 L 11.082031 15.757812 L 15.382812 20.058594 L 16 20.648438 L 16.617188 20.058594 L 26.9375 9.738281 Z M 25.703125 8.5 "/>
</g>
</svg>
