<svg id="Layer_1" data-name="Layer 1" xmlns="http://www.w3.org/2000/svg" viewBox="0 0 213.97 80.01"><defs><style>.cls-1{isolation:isolate;}.cls-2{fill:#1c274c;}.cls-3{fill:#3aada9;}.cls-4{fill:#1c284c;}.cls-5{fill:#00a29a;}</style></defs><g id="Techcells-logo"><g id="Techcells" class="cls-1"><g class="cls-1"><path class="cls-2" d="M272.17,414.62h-5.81v18.51H262.3V414.62l-5.81,0v-3.92h15.68Z" transform="translate(-176.14 -381.23)"/><path class="cls-2" d="M284.52,433.13h-8.33l-2.8-2.8V418.12l2.8-2.8h8.33l2.8,2.8v5.32l-2.8,2.8h-7.07v3.18h9.87v.91Zm-1.26-13.93h-5.81v3.32h5.81Z" transform="translate(-176.14 -381.23)"/><path class="cls-2" d="M302,433.13h-7.8l-2.8-2.8V418.12l2.8-2.8H302l2.8,2.8v1.08h-9.34v10.05h9.34v1.08Z" transform="translate(-176.14 -381.23)"/><path class="cls-2" d="M321.66,433.13H317.6V419.2h-5.46v13.93h-4l0-22.54,3.29-1.22.77,0v8l2-2h4.69l2.8,2.8Z" transform="translate(-176.14 -381.23)"/></g><g class="cls-1"><path class="cls-3" d="M336.56,433.13h-7.91l-2.8-2.8v-16.8l2.8-2.8h7.91l2.8,2.8v1.09h-9.44v14.63h9.44v1.08Z" transform="translate(-176.14 -381.23)"/><path class="cls-3" d="M353.82,433.13h-8.33l-2.8-2.8V418.12l2.8-2.8h8.33l2.8,2.8v5.32l-2.8,2.8h-7.07v3.18h9.87v.91Zm-1.26-13.93h-5.81v3.32h5.81Z" transform="translate(-176.14 -381.23)"/><path class="cls-3" d="M364.74,433.13h-4.1V410.7l3.29-1.3.81-.07Z" transform="translate(-176.14 -381.23)"/><path class="cls-3" d="M373,433.13h-4.09V410.7l3.29-1.3.8-.07Z" transform="translate(-176.14 -381.23)"/><path class="cls-3" d="M387.31,433.13H380l-2.8-2.8v-.91h8.82v-3.36h-6l-2.8-2.8v-5.14l2.8-2.8h7.28l2.8,2.8V419h-8.82v3.18h6l2.8,2.8v5.32Z" transform="translate(-176.14 -381.23)"/></g></g><g id="Group_8590" data-name="Group 8590"><g id="Group_8589" data-name="Group 8589"><g id="Group_8588" data-name="Group 8588"><path id="Path_3150" data-name="Path 3150" class="cls-4" d="M210.79,392.23l25.12,14.5,9.52-5.5-34.64-20-34.65,20,9.53,5.5Z" transform="translate(-176.14 -381.23)"/><path id="Path_3151" data-name="Path 3151" class="cls-5" d="M210.79,450.24l-25.12-14.5v-29l-9.53-5.5v40l34.64,20,34.64-20-9.52-5.5Z" transform="translate(-176.14 -381.23)"/><path id="Path_3152" data-name="Path 3152" class="cls-4" d="M224.65,406.42l-9.52-5.5v40.64l9.52-5.5Z" transform="translate(-176.14 -381.23)"/><path id="Path_3153" data-name="Path 3153" class="cls-4" d="M206.44,400.92l-9.53,5.5v29.64l9.53,5.5Z" transform="translate(-176.14 -381.23)"/></g></g></g></g></svg>